<svg id="Layer_1" data-name="Layer 1" xmlns="http://www.w3.org/2000/svg" xmlns:xlink="http://www.w3.org/1999/xlink" viewBox="0 0 4941.03 4941.03"><defs><style>.cls-1,.cls-14,.cls-33,.cls-34{fill:#fff;}.cls-1,.cls-10,.cls-11{fill-rule:evenodd;}.cls-2{fill:#0f8462;}.cls-3{fill:#1c4c3f;}.cls-4{fill:#a59035;}.cls-5{fill:#e8b5ca;}.cls-12,.cls-6{fill:#e1dfe5;}.cls-7{fill:#6adc95;}.cls-8{fill:#1d1488;}.cls-9{mask:url(#mask);}.cls-10{fill:#11043b;}.cls-11{fill:#5ec982;}.cls-12{stroke:#1d1488;}.cls-12,.cls-37,.cls-38,.cls-39,.cls-41,.cls-43{stroke-linecap:round;}.cls-12,.cls-39{stroke-linejoin:round;}.cls-12,.cls-48{stroke-width:11px;}.cls-13{fill:#599cc9;}.cls-14,.cls-15,.cls-26,.cls-32,.cls-36,.cls-37,.cls-38,.cls-39,.cls-49,.cls-50,.cls-51,.cls-52,.cls-53{stroke:#000;}.cls-14,.cls-15,.cls-26,.cls-32,.cls-35,.cls-36,.cls-37,.cls-38,.cls-41,.cls-43,.cls-47,.cls-48,.cls-49,.cls-50,.cls-51,.cls-52,.cls-53{stroke-miterlimit:10;}.cls-14,.cls-41,.cls-49{stroke-width:10px;}.cls-15{font-size:129.12px;}.cls-15,.cls-26,.cls-52{stroke-width:4px;}.cls-15,.cls-26{font-family:MyriadPro-Regular, Myriad Pro;}.cls-15,.cls-18{letter-spacing:-0.02em;}.cls-16{letter-spacing:-0.03em;}.cls-17{letter-spacing:-0.02em;}.cls-19{letter-spacing:-0.03em;}.cls-20{letter-spacing:-0.03em;}.cls-21{letter-spacing:-0.02em;}.cls-22{letter-spacing:-0.01em;}.cls-23{letter-spacing:-0.03em;}.cls-24{letter-spacing:-0.03em;}.cls-25{letter-spacing:-0.11em;}.cls-26{font-size:158.22px;letter-spacing:-0.03em;}.cls-27{letter-spacing:-0.02em;}.cls-28{letter-spacing:-0.03em;}.cls-29{letter-spacing:-0.02em;}.cls-30{letter-spacing:-0.03em;}.cls-31{letter-spacing:-0.01em;}.cls-32{fill:#f3a947;}.cls-32,.cls-36,.cls-37{stroke-width:7px;}.cls-34{opacity:0.49;}.cls-35{fill:#da4251;stroke:#4f2b19;}.cls-35,.cls-43{stroke-width:22px;}.cls-36{fill:#4f2b19;}.cls-37,.cls-38,.cls-39,.cls-41,.cls-43,.cls-47,.cls-48,.cls-49,.cls-50,.cls-53{fill:none;}.cls-38,.cls-39{stroke-width:12px;}.cls-40{fill:#4a2e1b;}.cls-41{stroke:#4a2e1b;}.cls-42{fill:#ea7382;}.cls-43{stroke:#fff;}.cls-44{fill:#a33037;}.cls-45{fill:#1e1d1e;}.cls-46{fill:#414042;}.cls-47{stroke:#414042;stroke-width:18px;}.cls-48{stroke:#03e2ac;}.cls-50,.cls-51{stroke-width:5px;}.cls-51{fill:#b67a56;}.cls-52{fill:#7f523b;}.cls-53{stroke-width:8px;}.cls-54{font-size:244.51px;fill:#d54d6e;font-family:Futura-Bold, Futura;font-weight:700;letter-spacing:0.12em;}</style><mask id="mask" x="3075.72" y="2428.46" width="771.35" height="187.88" maskUnits="userSpaceOnUse"><g id="mask24"><path class="cls-1" d="M3078.28,2616.34l768.79-11.17-2.56-176.71-768.79,11.18Z"/></g></mask></defs><path class="cls-2" d="M0,2824V4939.14H4648.54c3.5,0,5.1,2.95,4.81,5.65H4954V2824Z"/><rect class="cls-3" y="2628" width="4941" height="196"/><rect class="cls-4" x="-40" width="4979" height="2626"/><polygon points="4359.62 2727.74 395.33 2727.74 395.33 226 4359.62 226 4359.62 2202.65 4359.62 2727.74"/><rect class="cls-5" x="490.24" y="377.12" width="3774.47" height="2199.5" rx="52"/><image width="1024" height="1024" transform="translate(2103.32 890.76) scale(0.55)" xlink:href="../../../../../Downloads/gtc_token.f203d7e9a51e%20(1)/gtc@1024.png"/><path class="cls-6" d="M3838,2567.18c-25-89.25-69.22-163.74-103.67-212.49,1.86-9.25,6.37-37,10.44-98.39,4.89-74.44-170.25-173.61-201.94-190.91-1.67-2.7-3.33-5.41-5.3-8.17-33.19-46.37-102-56.85-104.78-57.32l-1.32-59.09a150.3,150.3,0,0,0,52.29-15l1.82-.91.94-2c1.1-3,28.45-72.91,2.46-156.77l-.86-3-3-.82a160.9,160.9,0,0,0-25.77-3.71l0-.56c-.26,0-.37.21-.64.21-2,0-4.06.24-6.09.29l-.16.08c-7.33,2.11-7.69,2.31-15.32,2.55a7.8,7.8,0,0,1-4-.93,8,8,0,0,1-10-6c-3-13.41-5.28-26.91-8.16-40.26-2.74-9.87-5.45-19.76-8.43-29.62-12-33.71-30.19-64.82-57.53-90.64-48.66-45.93-119-53.11-182.8-43.7-76.5,11.28-125,47.73-148.11,122.21-10.62,34.25-8.74,51-42.67,66a6.14,6.14,0,0,1-.72.15L2958.23,1750l-.37,2.21c-1.31,6.92-30.47,169.08,36.35,251l1.23,1.72,2.24.22c1.62.27,13.45,2.1,31.77,4.11l11.58,87.51c-13,1.32-44.27,10.64-74.14,65.72-13.58,6.82-63.74,34.52-85.12,86.92-8.87,22.19-15.12,65.75-22.06,116.17-9.57,68.11-21,149.66-43.15,201.66Z"/><path class="cls-6" d="M3048.28,2171.42l-9,9.43-10.59,10.1-1.72,41.26,7.06,37.89s72.47,97.4,255.27,39.5c176.68-55.95,214.08-161.51,214.08-161.51l8.08-21.65-78.38-28.55-12.85-166,65.34-13.88,12.12-94.45L3484.8,1768l-63.4-2.47-4.32-18.53s-12-246.92-273-190.5l-56.32,17.27-45.17,43.63L3020,1665l-19,66.36-.68,18.49,48.74,422.92"/><path class="cls-7" d="M2961.67,1758.9l-6.48,109.5,28.82,119,28.58,18.89,272.58-9.27,44.46-25,7.85-29.11L3337,1835.2l-18.83-69.2-33.77-37.59-282.61-5.08"/><path class="cls-8" d="M2950.35,2567.18h11.17q-1-8.26-1.63-16.45c-.36-3.25-.56-6.62-.77-9.84a497.49,497.49,0,0,1,2.27-85c.33-3.74.77-7.3,1.21-10.87,9.57-73.34,32.16-130.25,42.77-153.66,3.22-7.5,5.27-11.56,5.47-11.82l-9.92-5.16a43.09,43.09,0,0,1-2,3.92c-11,22.89-65,144.16-48.7,287.69C2950.25,2566.36,2950.3,2566.77,2950.35,2567.18Z"/><path class="cls-8" d="M3136.41,2323.88c-67-11.24-109.18-36.39-125.36-74.83-26.5-62.93,26.56-137,28.83-140.16l9.07,6.59c-.51.72-51.62,72.17-27.55,129.25,15.24,36.13,57.24,59.38,125.1,69.37,180.2,26.3,310.47-116.79,346.1-161.27,10.75-13.42,15.65-29.92,13.44-45.3-4.52-31.6-31.52-56.63-78.08-72.36l3.59-10.63c64.23,21.7,82,56.24,85.61,81.4,2.64,18.43-3.12,38.08-15.79,53.91-36.58,45.65-170.39,192.52-356.5,165.35Q3140.58,2324.57,3136.41,2323.88Z"/><path class="cls-8" d="M3435.15,2108.64l-.05.3-6-.26c-59.62-2.71-89.09,101.59-89.41,102.59l-.86,3.35-3.3.66c-83,17.34-141.81,17.8-183.42,10.82-30.69-5.14-51.91-14.32-66.54-23.9-17.23-11.24-26.51-23.72-31.52-32.75a74.44,74.44,0,0,1-4.47-10.46,14.73,14.73,0,0,1-.44-1.89l-4.64-34.77-1.46-11.17-.51-3.27-1.48-11.18-11.56-87.5-.25-1.26,11.17-1.47.54,4,19.29,144.64c.19.65,25.09,100.1,269.59,49.76,5.68-18.47,35.13-104.56,93.87-107.46l-3.58-156,0-5.16,11.27-.24.11,4.72,1.32,59.09,0,.15.23,11.26.26,13.86.26,12,1.39,59.55,0,.16Z"/><path class="cls-8" d="M3552.63,2133.65a86.62,86.62,0,0,1-3.68,12.88,88.47,88.47,0,0,1-4.51,10.62c-42.28,89.26-226.42,226.5-390.75,204.1-5.19-.72-10.23-1.41-15.11-2.23-83.81-14.06-118.76-43.58-133.22-67.71a76.48,76.48,0,0,1-6.46-13.07c-4.74-13.38-3.69-23.22-3.49-24.4l8.75-53.15.85-5,11.07,1.86-.69,4.13-6.69,40.75-2.17,13c-.1.59-7,73.62,148.72,94.74,174.13,23.73,371-135.95,386.33-218.5,3.93-21.64,1.59-41.15-7.25-58.11a7.45,7.45,0,0,0-.81-1.51,72.11,72.11,0,0,0-5.13-8.29c-27.51-38.6-84.39-50.42-95.43-52.42L3431,2011l1.69-10.94,0-.15c2.81.47,71.6,10.95,104.78,57.32,2,2.76,3.64,5.47,5.31,8.17a88.08,88.08,0,0,1,7.43,17.18C3555.24,2098.13,3556,2115.25,3552.63,2133.65Z"/><path class="cls-8" d="M3434.8,2096.8l-3.18,10.76,75.65,22.32,3.18-10.75Z"/><path class="cls-8" d="M2951,2567.18l-.77-1.23c-17.1-27.45-46.12-100.44-17.88-256.23,32.92-180.95,94.66-199.88,110.16-201.83a22.33,22.33,0,0,1,3.51-.17l1.27-11.17a24.89,24.89,0,0,0-6.24.16c-13,1.32-44.27,10.64-74.14,65.71-2.89,5.44-5.69,11.34-8.72,17.65-13.73,30.32-26.72,71.54-36.89,127.65-27.4,151.35-2.38,226.85,16.23,259.46Z"/><path class="cls-8" d="M3020.36,2266.3c.38-17.21,3.87-103.4,35.1-109.59l2.19,11c-16.53,3.29-25.19,59.78-26.07,98.85Z"/><path class="cls-8" d="M3388,2259.74l-10.91-2.62c27.21-112.88,102.35-142.23,105.54-143.42l4,10.51C3485.82,2124.48,3413.71,2153,3388,2259.74Z"/><path class="cls-8" d="M3547.57,2145.51l-6.78,8.93,96.21,73,6.79-8.95Z"/><path class="cls-8" d="M2828.65,2567.18c21.65-53.7,32.76-133.27,42.18-200.1,7-49.66,12.93-92.51,21.29-113.41,15-37.09,46.55-61.38,66.05-73.59a176.81,176.81,0,0,1,16.69-9l-4.52-10.17c-.33.09-1.48.66-3.45,1.55-13.59,6.82-63.75,34.53-85.12,86.92-8.88,22.19-15.12,65.75-22.07,116.17-9.57,68.11-21,149.66-43.14,201.66Z"/><path class="cls-8" d="M3432.7,2538.52a217.54,217.54,0,0,0,6.74,28.66h11.75c-10.84-33.42-14.66-72.51-4.21-116.54,34.75-146.66,185.39-213.5,204.14-221.28,17.24,6.68,28.64,16.49,34.26,29.11,5.35,12.43,3.93,25.39,2.19,33.14-17.29-8.21-47.59,5.07-52.19,7.18-76.77,48-120.54,104.51-130,168-5.69,38.07,1.73,72.7,12.49,100.37h12.33c-11-27-19.29-61.45-13.7-98.81,9-60.09,51-114,124.18-159.73,8.71-4,25.57-9.52,36.29-8.33,4,.37,7.16,1.66,8.88,4.06l5.72,8.4,3.7-8.49.29-.86c.49-1.13,10.58-25.08.08-49.29-7-16.2-21.35-28.31-42.65-36.13l-2-.65-2,.75c-.17.12-2.75,1-7.35,3.16-2.29,1-4.92,2.21-8.05,3.65-43.38,20.8-166.08,90.2-197.63,223.13-6.76,28.61-7.87,55.12-5,79.43C3431.5,2531.19,3432,2534.91,3432.7,2538.52Z"/><path class="cls-8" d="M3838,2567.18c-25-89.25-69.22-163.74-103.66-212.49-3.19-4.48-6.41-8.82-9.38-12.81-12.09-16.59-22.56-29.27-29.65-37.59-6.35-7.44-10.08-11.4-10.35-11.6l-7.95,7.62-.17.12c1.23,1.26,104.87,110.84,149.48,266.75Z"/><path class="cls-8" d="M3734.33,2354.69c-.39,2.36-.74,3.51-.76,3.66l-10.92-2.75c0-.14,1-4.08,2.3-13.71,2.26-14.35,5.67-41.08,8.58-86.42,4-60.16-134-144.76-183.26-172.89-7.87-4.66-13.57-7.74-15.93-9a5.51,5.51,0,0,0-1.26-.67l.45-.84,4.71-9.07c.56.25,2.24,1.13,4.59,2.43,31.69,17.31,206.83,116.47,201.94,190.91C3740.7,2317.67,3736.19,2345.44,3734.33,2354.69Z"/><path class="cls-8" d="M3340.33,1968.32c.87-7,18.28-172.33-33.14-231.17-11.72-13.34-26.18-20.32-43.1-20.73-81.46-1.83-210.21,1.46-249.55,2.61-5.78.09-9.59.21-11.12.26a1.49,1.49,0,0,1-.62,0l-1.69.16-25.68,18.31-17.2,12.14-.37,2.21c-1.31,6.92-30.48,169.07,36.35,251l1.23,1.72,2.24.23c1.62.27,13.45,2.1,31.77,4.11,3.57.44,7.43.94,11.47,1.32,55,5.58,150.23,11.54,215.23-6.09,1.87-.3,46-7.17,81.84-32.1l2.08-1.47Zm-54.71,16.93,0,.14a108.22,108.22,0,0,1-11.18,3.28,179.81,179.81,0,0,1-20.51,4.76c-86.79,23.53-232.9,3.73-252.45.91-57.63-73.39-36.24-218.19-32.95-237.81l36.36-25.92c17.69-.53,167.89-5.08,259-3,13.75.34,25.11,5.88,34.94,16.93,44.78,51.36,32.66,198.78,30.62,220C3314.92,1974.23,3299.1,1980.83,3285.62,1985.25Z"/><path class="cls-8" d="M3274.55,1992.73c0-1.28-1.75-127.93-18.87-190.29-7.87-28.7-149.81-26.38-237.43-18.16l-1.05-11.16c39.4-3.71,236.63-19.84,249.31,26.36,17.49,63.74,19.2,187.85,19.26,193.1Z"/><path class="cls-8" d="M3003.39,1720.32c-.12-2.82-2.22-69.69,47.42-121.87,36.62-38.47,91.33-58.31,162.6-59,204.6-1.83,211.74,221.11,211.79,223.37l-11.22.24c-.19-8.74-6.95-214.12-200.46-212.38-68.06.62-120,19.25-154.48,55.37-46.38,48.65-44.47,113.14-44.43,113.79Z"/><path class="cls-8" d="M3459.12,1760.35l-11.19-1.12a7.88,7.88,0,0,0,.06-1.35c1.08-13.63,6.63-126.35-61.21-201.29-41.11-45.28-101.09-68.53-178.37-69.06-79.72-.47-139.45,21.84-177.27,66.47-52.7,61.87-48.16,149.73-45.19,176.32a54.72,54.72,0,0,0,1,7.9l-11.1,1.93c-.09-.32-.12-1.08-.37-2.34-2.58-17.12-14.19-118.9,47.08-191.17,40.21-47.12,102.77-70.92,186-70.32,80.63.47,143.43,25,186.68,72.87,71.15,78.69,65.36,192.88,64.11,209.36A11.69,11.69,0,0,1,3459.12,1760.35Z"/><path class="cls-8" d="M3488.93,1766.1l-.85-3-3-.82a160.9,160.9,0,0,0-25.77-3.71c-3.45-.28-7.21-.45-11.28-.67-6.78-.23-14.53-.17-23.09.22-3.52.17-7.21.46-11,.73-8.61.68-17.9,1.85-27.75,3.53l-3.12.55-1.12,3c-1.7,4.72-40.74,113.63,16.27,172.65l1.3,1.29,1.62.27c.15,0,.43.22.72.27a124,124,0,0,0,29.66.42,150.19,150.19,0,0,0,52.29-15l1.82-.91.94-2C3487.58,1919.88,3514.92,1850,3488.93,1766.1Zm-12.19,150.6c-34.44,16.23-64.52,13.76-71.77,12.69-45.31-49.17-19.35-138.88-13.67-156.44a287.2,287.2,0,0,1,40.39-3.85c4.26,0,8.51-.09,12.28.09a197.43,197.43,0,0,1,35.24,3.32C3500.07,1843.53,3480.8,1905.09,3476.74,1916.7Z"/><path class="cls-8" d="M3426.71,1865.4c-21.86-45.61,7.26-101.49,8.5-103.84l9.92,5.25c-.28.53-27.7,53.27-8.3,93.73Z"/><path class="cls-8" d="M3023.36,2567.18h11.5a128.74,128.74,0,0,1-1.55-50.71c11.31-67.45,72.89-113.56,137.23-102.77s107.37,74.43,96.06,141.88c-.66,4-1.5,7.81-2.49,11.6h11.56c.77-3.2,1.44-6.44,2-9.74a131.81,131.81,0,0,0,1.82-24.43,88.54,88.54,0,0,0-.39-11.3c-5.24-59.14-47.8-109.36-106.68-119.23-56.66-9.51-111.25,21.09-136.88,71.72-1.78,3.35-3.26,6.74-4.76,10.28a141.64,141.64,0,0,0-7.81,80.92Z"/><path class="cls-8" d="M3419.8,2539.1l-.31-11.23q10.29-.27,20.89-.85l.59,11.22Q3430.23,2538.81,3419.8,2539.1Z"/><path class="cls-8" d="M3275.14,2532.57l1-11.18c11.19,1,22.6,2.07,34.27,3l-.89,11.19C3297.84,2534.64,3286.39,2533.61,3275.14,2532.57Z"/><path class="cls-8" d="M3040.5,2487.69c-54.4-16.76-82-33.33-83.15-34l5.83-9.59c.27.16,27.71,16.6,80.63,32.9Z"/><path class="cls-8" d="M3028.37,2567.18c-42.95-15.14-67.67-28.53-67.92-28.67l-5.38,9.85c.8.44,15.28,8.29,41.46,18.82Z"/><path class="cls-8" d="M3131.18,1644a50.68,50.68,0,0,1-41.19-39.53l-4.89-23.14,11-2.32,4.89,23.13a39.45,39.45,0,0,0,37,31.3l68.34,2.78a39.29,39.29,0,0,0,31.2-13.29l56.61-64.08,8.42,7.43-56.63,64.07a50.46,50.46,0,0,1-40.06,17.09l-68.34-2.78A51.56,51.56,0,0,1,3131.18,1644Z"/><path class="cls-8" d="M3312.5,2567.18l2.59-46.56a11.23,11.23,0,0,1,11.45-10.37l27.43,1.11a4.07,4.07,0,0,1,1.35.07,10,10,0,0,1,6.25,3.48,10.28,10.28,0,0,1,2.91,7.93l-2.05,44.34h11.31l2-43.82a21.86,21.86,0,0,0-5.32-15.31,1.87,1.87,0,0,0-.61-.86,22.4,22.4,0,0,0-15.49-7.15l-27.45-1a22.24,22.24,0,0,0-23,21l-.17,3.76-.66,11.12-1.8,32.18Z"/><path class="cls-8" d="M3375.65,2567.18l2.16-46c.33-6.48,4.47-11.24,8.11-11.24l21.23-.85.88.15a4.92,4.92,0,0,1,2.78,1.54c2,1.85,3.07,5.22,2.92,8.83l-1.92,47.62h11.25l1.08-28.28.5-11.14.26-7.85c.21-6.64-1.93-12.92-6.08-17.1a16.42,16.42,0,0,0-12.07-4.91l-21.21.7c-6.1.19-11.56,3.82-15.09,9.45a25.26,25.26,0,0,0-3.78,12.57l-2.18,46.56Z"/><g class="cls-9"><path class="cls-10" d="M3151.05,2476.51l-.24-16.56a4.76,4.76,0,0,0-9.52.14l.24,16.93a68.71,68.71,0,0,1,7.36-.53C3149.62,2476.48,3150.33,2476.51,3151.05,2476.51Z"/></g><g class="cls-9"><path class="cls-11" d="M3184,2574.77l3.52,2.7c.81-.87,1.58-1.78,2.32-2.7Z"/><path class="cls-11" d="M3187.1,2542.1a37.07,37.07,0,0,1-9.23,25.08h17a51.29,51.29,0,0,0-9.64-61.64l-4.75,4.62-5.88,4.65.78.73A37,37,0,0,1,3187.1,2542.1Z"/></g><g class="cls-9"><path class="cls-11" d="M3183.21,2574.77l3.64,3.43.36-.39.3-.34-3.52-2.7Z"/></g><path class="cls-10" d="M3081.48,2567.18h14a59.66,59.66,0,0,1,90.81-71.78l-28.67,27.28a21.43,21.43,0,1,0-7.46,41.39,21.08,21.08,0,0,0,6-1l5.58,4.08h22l-16.54-12.08a21.35,21.35,0,0,0,.52-24.16l17.1-16.27.15.15,20.22-19.63-4.79-4.65a72.64,72.64,0,0,0-119,76.64Zm68.49-16.09a8.45,8.45,0,1,1,8.33-8.57A8.45,8.45,0,0,1,3150,2551.09Z"/><g class="cls-9"><path class="cls-10" d="M3124.31,2515.74a4.77,4.77,0,0,1-4.83-4.69l-.73-50.63a4.76,4.76,0,1,1,9.52-.13l.73,50.62A4.77,4.77,0,0,1,3124.31,2515.74Z"/></g><path class="cls-12" d="M3062.58,2047.79c-5,33.08,205.68,44.63,242.49-23.46,0,0-76.4,135.84-144.06,120.59C3093.09,2129.61,3062.58,2047.79,3062.58,2047.79Z"/><path class="cls-13" d="M3524.69,1739.36s58.54-141.41,138.25-107.84S3524.69,1739.36,3524.69,1739.36Z"/><path class="cls-13" d="M3535.36,1785.46s104.46-47.8,131.12,11.4S3535.36,1785.46,3535.36,1785.46Z"/><path class="cls-13" d="M2902.16,1755s-58.55-141.4-138.26-107.83S2902.16,1755,2902.16,1755Z"/><path class="cls-13" d="M2891.49,1801.1s-104.47-47.79-131.12,11.41S2891.49,1801.1,2891.49,1801.1Z"/><path class="cls-13" d="M1439.93,1855.66s-38.51-93-90.94-70.93S1439.93,1855.66,1439.93,1855.66Z"/><path class="cls-13" d="M1432.91,1886s-68.71-31.44-86.24,7.5S1432.91,1886,1432.91,1886Z"/><path class="cls-14" d="M1128,1331.86l164,93.68,76.67-93.68s769.5-167,556.49-594.41S1163.25,446.92,1001,491.62c-136.21,37.52-433.34,283.21-229.79,713.83C904.37,1487.1,1128,1331.86,1128,1331.86Z"/><text class="cls-15" transform="translate(897.87 698.12)">...and then I said:<tspan class="cls-16"><tspan x="0" y="154.95">“</tspan><tspan class="cls-17" x="42.35" y="154.95">M</tspan><tspan class="cls-18" x="143.97" y="154.95">oloch </tspan><tspan class="cls-19" x="455.27" y="154.95">y</tspan><tspan class="cls-18" x="511.83" y="154.95">ou a</tspan><tspan class="cls-20" x="731.59" y="154.95">r</tspan><tspan class="cls-18" x="769.55" y="154.95">e </tspan></tspan><tspan x="0" y="309.89">ba</tspan><tspan class="cls-21" x="129.76" y="309.89">r</tspan><tspan class="cls-22" x="169.53" y="309.89">k</tspan><tspan x="229.31" y="309.89">ing </tspan><tspan class="cls-23" x="418.86" y="309.89">a</tspan><tspan x="477.61" y="309.89">t the </tspan><tspan x="0" y="464.84">w</tspan><tspan class="cls-20" x="92.06" y="464.84">r</tspan><tspan x="130.02" y="464.84">ong t</tspan><tspan class="cls-24" x="400.01" y="464.84">r</tspan><tspan x="437.97" y="464.84">ee!</tspan><tspan class="cls-25" x="588.14" y="464.84">”</tspan><tspan x="619.77" y="464.84"> </tspan></text><path class="cls-14" d="M3205.46,1120.47l189.86,94.28,100-64s940.59-34.57,719.09-397.38-893.92-324.22-1093-309.48c-167.16,12.38-545.22,168.19-335.38,532.35C2923.35,1214.41,3205.46,1120.47,3205.46,1120.47Z"/><text class="cls-26" transform="translate(2811.15 765.6)">A<tspan class="cls-27" x="92.72" y="0">nd wh</tspan><tspan class="cls-28" x="489.36" y="0">a</tspan><tspan class="cls-27" x="561.35" y="0">t happened </tspan><tspan class="cls-29"><tspan x="0" y="189.86">n</tspan><tspan class="cls-30" x="84.17" y="189.86">e</tspan><tspan class="cls-31" x="159.32" y="189.86">x</tspan><tspan x="230.99" y="189.86">t?</tspan></tspan></text><path class="cls-32" d="M1933.46,2569.94c13.57-118.49,15.76-246.12-18.71-327.85-79.63-188.87-201.81-31.13-201.81-31.13-39.12,59.53-21.12,215.46,7.41,359Z"/><path class="cls-32" d="M1910,2569.79c11.61-40.73,16.27-82.38,10.87-123.8-33.41-256.35-176.28-326.52-176.28-326.52l-493.26,11.74s-156.87,209.17-109,438.58Z"/><path class="cls-33" d="M1765.26,2569.94c13.72-89.41,18.93-221.3,12.3-407.59H1313.33s95.8,239.86,200.62,407.59Z"/><path class="cls-33" d="M1561.1,2363.53l.06.12Z"/><path class="cls-33" d="M1561.16,2363.65s0,0,0,0Z"/><path class="cls-34" d="M1828,2118.23c-.1.58-.16.88-.16.88s-2.63,2.24-7.93,5.88C1822.18,2123.27,1824.92,2121,1828,2118.23Z"/><path class="cls-34" d="M1819.93,2125a68.85,68.85,0,0,1-6.76,4.7l-.07-.2C1815.73,2127.83,1818,2126.32,1819.93,2125Z"/><path class="cls-35" d="M1237.82,2104.19s357.31,183.17,593.56,14.92c0,0-152.67,209.6-149.12,276.47C1682.26,2395.58,1527.17,2375.6,1237.82,2104.19Z"/><path class="cls-35" d="M1233.27,2100.61s-87.11,43.41-219.64-11.38c0,0,103.52-106,199.75-76.09"/><path class="cls-35" d="M1284,2077.53s-44.47,107.88-207.4,162.87c0,0,10-177.39,120.48-226.22"/><path class="cls-32" d="M1197.48,1785.5s-53.34-141.88,28.91-235.29,79.3-121.6,159.79-35.83,58.16,140.4,58.16,140.4Z"/><path class="cls-36" d="M1313.83,1664.55l90-51.48s-67.16-106.64-90-59.78S1291.41,1630.26,1313.83,1664.55Z"/><path class="cls-32" d="M1622.63,1586.34s89-149.51,124.84-77.84S1784,1698.41,1784,1698.41,1642.9,1599,1622.63,1586.34Z"/><path class="cls-37" d="M1250.11,1522.47s-26.84,101.81-10.6,190.2"/><path class="cls-36" d="M1640.26,1608.47s80.48-95.46,89.44-42.49,22.5,120.4,22.5,120.4Z"/><path class="cls-32" d="M1365,1614.83c-17.76.31-442.45,272.2-51.7,548.7,0,0,425,120.13,556-78.43-4-2.64,49.35-89.3-8.81-202.35-62.86-122.18-10.58-198.3-237.93-295.24C1622.63,1587.51,1480.17,1543.75,1365,1614.83Z"/><path class="cls-33" d="M1313.33,2162.35s425,120.14,556-78.43c-4-2.64,49.35-89.29-8.81-202.34q-3-5.89-5.72-11.64c-15.9,11.93-32.42,44.4-43.44,66.24-1.4-1.62-2.82-3.17-4.27-4.69-55.15-57.51-150.23-45.26-270.24,24.59-22.11,12.87-37.62,28.23-48.18,44.84-52.2-83.07-307.29,25.19-307.29,25.19-.24.13-.48.28-.7.42C1206.25,2070.87,1248.6,2116.55,1313.33,2162.35Zm506.6-37.36c2.25-1.72,5-4,8.09-6.76-.1.58-.16.88-.16.88s-2.63,2.24-7.93,5.88a68.85,68.85,0,0,1-6.76,4.7l-.07-.2C1815.73,2127.83,1818,2126.32,1819.93,2125Z"/><path class="cls-38" d="M1561.17,1882.75c-29.75-19.64-86.38,4.11-86.38,4.11"/><path class="cls-38" d="M1427.59,1844.83s110.32-14.76,133.88,37.26"/><path class="cls-39" d="M1800.43,1817.43c-31.63-21.22-83.73,57.55-83.73,57.55s59.17-35.06,87.86-12.49"/><path class="cls-40" d="M1634.68,1978.47s-32.31-40.53,13.51-44.06,99.28-1.17,75.78,31.73S1679.32,2017.25,1634.68,1978.47Z"/><path class="cls-40" d="M1676.66,2003.43s-3.21,56.11-59,57.88c0,0-10.3,68.32,29.51,85S1729.7,2109,1729.7,2109s43.87-40.1,9.09-58C1738.79,2051,1677.51,2044.84,1676.66,2003.43Z"/><path class="cls-41" d="M1720.93,2061.12s49,3.69,70.69-57.69"/><path class="cls-41" d="M1566.63,2003.43s-7.15,57.58,73.63,57.73"/><path class="cls-42" d="M1627,2078.93s137.47-33.48,109.27,6.46c-27.86,39.46-55.6,70.62-91.06,49.35C1612.94,2115.35,1627,2078.93,1627,2078.93Z"/><path class="cls-43" d="M1439.88,1787.87s95.68-18.32,141.34,36.1"/><path class="cls-43" d="M1696.23,1824s8.24-72.54,64.4-68.29"/><path class="cls-44" d="M1501.73,2248.13s150.36,44.39,210.39-12.76"/><path class="cls-32" d="M1371.71,2569.94c8.51-103.2,6-207.47-23.65-277.78-79.64-188.87-201.82-31.13-201.82-31.13-34.6,52.66-24.51,180.72-2,308.91Z"/><path class="cls-13" d="M1821,1826.87s38.5-93,90.93-70.93S1821,1826.87,1821,1826.87Z"/><path class="cls-13" d="M1828,1857.2s68.72-31.44,86.25,7.5S1828,1857.2,1828,1857.2Z"/><path class="cls-13" d="M1427.55,1862.75s-38.51-93-90.94-70.93S1427.55,1862.75,1427.55,1862.75Z"/><path class="cls-13" d="M1420.53,1893.08s-68.71-31.44-86.25,7.5S1420.53,1893.08,1420.53,1893.08Z"/><path class="cls-45" d="M2125.29,2224.12h162.58a0,0,0,0,1,0,0v90.94a68,68,0,0,1-68,68h-40.08a54.54,54.54,0,0,1-54.54-54.54V2224.12A0,0,0,0,1,2125.29,2224.12Z" transform="translate(-935.42 1752.88) rotate(-36.29)"/><rect class="cls-46" x="1934.96" y="2102.42" width="236.42" height="12.12" transform="translate(-849.71 1624.23) rotate(-36.29)"/><rect class="cls-46" x="1948.52" y="2120.88" width="236.42" height="12.12" transform="translate(-858.01 1635.84) rotate(-36.29)"/><rect class="cls-46" x="1962.07" y="2139.34" width="236.42" height="12.12" transform="translate(-866.3 1647.44) rotate(-36.29)"/><rect class="cls-46" x="1976.02" y="2158.34" width="236.42" height="12.12" transform="translate(-874.84 1659.38) rotate(-36.29)"/><rect class="cls-46" x="1990.78" y="2178.43" width="236.42" height="12.12" transform="translate(-883.87 1672.01) rotate(-36.29)"/><rect class="cls-46" x="2003.53" y="2195.8" width="236.42" height="12.12" transform="translate(-891.68 1682.93) rotate(-36.29)"/><rect class="cls-46" x="2017.09" y="2214.26" width="236.42" height="12.12" transform="translate(-899.97 1694.54) rotate(-36.29)"/><rect x="2031.84" y="2234.35" width="236.42" height="12.12" transform="matrix(0.81, -0.59, 0.59, 0.81, -909, 1707.16)"/><rect class="cls-46" x="1920.61" y="2082.88" width="236.42" height="12.12" transform="translate(-840.93 1611.95) rotate(-36.29)"/><rect class="cls-46" x="1952.73" y="2147.17" width="236.42" height="12.12" transform="translate(2580.75 -790.46) rotate(53.71)"/><rect class="cls-46" x="1971.19" y="2133.62" width="236.42" height="12.12" transform="translate(2577.35 -810.87) rotate(53.71)"/><rect class="cls-46" x="1989.65" y="2120.06" width="236.42" height="12.12" transform="translate(2573.96 -831.28) rotate(53.71)"/><rect class="cls-46" x="2009.74" y="2105.31" width="236.42" height="12.12" transform="translate(2570.27 -853.49) rotate(53.71)"/><rect class="cls-46" x="1933.19" y="2161.52" width="236.42" height="12.12" transform="translate(2584.34 -768.85) rotate(53.71)"/><rect class="cls-46" x="1914.73" y="2175.08" width="236.42" height="12.12" transform="translate(2587.73 -748.44) rotate(53.71)"/><rect class="cls-47" x="1997.98" y="2031.63" width="179.04" height="238.31" rx="60.53" transform="translate(-868.09 1652.76) rotate(-36.29)"/><rect class="cls-45" x="2071.63" y="2266.51" width="230.4" height="23.35" rx="8.8" transform="translate(-924.22 1736.26) rotate(-36.29)"/><circle class="cls-45" cx="2280.92" cy="2208.26" r="5.61"/><circle class="cls-45" cx="2093.4" cy="2345.96" r="5.61"/><path class="cls-45" d="M2528.57,2316.11h40.08a68,68,0,0,1,68,68V2475a0,0,0,0,1,0,0H2474a0,0,0,0,1,0,0V2370.65A54.54,54.54,0,0,1,2528.57,2316.11Z" transform="translate(3197.08 5838.9) rotate(-143.71)"/><rect class="cls-46" x="2590.53" y="2194.42" width="236.42" height="12.12" transform="translate(3589.62 5577.38) rotate(-143.71)"/><rect class="cls-46" x="2576.97" y="2212.88" width="236.42" height="12.12" transform="translate(3554.21 5602.69) rotate(-143.71)"/><rect class="cls-46" x="2563.42" y="2231.34" width="236.42" height="12.12" transform="translate(3518.81 5628.01) rotate(-143.71)"/><rect class="cls-46" x="2549.47" y="2250.34" width="236.42" height="12.12" transform="translate(3482.36 5654.07) rotate(-143.71)"/><rect class="cls-46" x="2534.71" y="2270.43" width="236.42" height="12.12" transform="translate(3443.83 5681.61) rotate(-143.71)"/><rect class="cls-46" x="2521.96" y="2287.8" width="236.42" height="12.12" transform="translate(3410.51 5705.44) rotate(-143.71)"/><rect class="cls-46" x="2508.4" y="2306.26" width="236.42" height="12.12" transform="translate(3375.1 5730.75) rotate(-143.71)"/><rect x="2493.65" y="2326.35" width="236.42" height="12.12" transform="translate(3336.57 5758.3) rotate(-143.71)"/><rect class="cls-46" x="2604.88" y="2174.88" width="236.42" height="12.12" transform="translate(3627.11 5550.58) rotate(-143.71)"/><rect class="cls-46" x="2572.76" y="2239.17" width="236.42" height="12.12" transform="translate(6093.41 1405.16) rotate(126.29)"/><rect class="cls-46" x="2554.3" y="2225.61" width="236.42" height="12.12" transform="translate(6053.1 1398.46) rotate(126.29)"/><rect class="cls-46" x="2535.84" y="2212.06" width="236.42" height="12.12" transform="matrix(-0.59, 0.81, -0.81, -0.59, 6012.79, 1391.76)"/><rect class="cls-46" x="2515.75" y="2197.31" width="236.42" height="12.12" transform="translate(5968.93 1384.47) rotate(126.29)"/><rect class="cls-46" x="2592.3" y="2253.52" width="236.42" height="12.12" transform="translate(6136.09 1412.26) rotate(126.29)"/><rect class="cls-46" x="2610.76" y="2267.08" width="236.42" height="12.12" transform="translate(6176.4 1418.95) rotate(126.29)"/><rect class="cls-47" x="2584.89" y="2123.63" width="179.04" height="238.31" rx="60.53" transform="translate(3502.58 5633.45) rotate(-143.71)"/><rect class="cls-45" x="2459.88" y="2358.5" width="230.4" height="23.35" rx="8.8" transform="translate(3247.78 5804.75) rotate(-143.71)"/><circle class="cls-45" cx="2480.99" cy="2300.26" r="5.61"/><circle class="cls-45" cx="2668.51" cy="2437.96" r="5.61"/><polygon class="cls-45" points="2206.59 2366.14 2206.59 2580.57 2250.05 2580.57 2250.05 2351.57 2206.59 2366.14"/><polygon class="cls-45" points="2502.49 2432.96 2360.22 2589.95 2423.31 2583.87 2549.48 2443.78 2502.49 2432.96"/><circle class="cls-48" cx="2386.28" cy="1173.89" r="348.67"/><rect x="1013.79" y="2723.09" width="167.22" height="918.41"/><rect x="3693.37" y="2723.09" width="167.22" height="918.41"/><rect x="1123.95" y="3117.93" width="2653.03" height="63.7"/><path class="cls-49" d="M3394.6,2722.91s1292,20.22,1445.4-550.91"/><rect x="4804.13" y="2100.28" width="72.99" height="80.96" rx="12.89"/><circle class="cls-50" cx="4839.97" cy="2140.09" r="63.7"/><path class="cls-51" d="M4520.27,4924.05c-22.21-120.46-68.53-253.42-160.27-368.46-240.36-301.43-841.06-248.52-1234.73-148.48,0,0,188.06-269.61,56.83-699.67S2555,3275.29,2555,3275.29s-620.26-78-728.1,283.2,18.62,818.25,18.62,818.25S891,4058,675.29,4467.24c-113.07,214.56-184.92,363.58-227.7,456.81Z"/><path class="cls-52" d="M2774.34,3535.35s180,340.26,364.22,312,887.82-760.09,313-1551.63C3451.57,2295.74,3395.92,3071,2774.34,3535.35Z"/><path class="cls-52" d="M2164.06,3522.61s-180,340.26-364.21,312S912,3074.54,1486.83,2283C1486.83,2283,1542.49,3058.22,2164.06,3522.61Z"/><path class="cls-53" d="M2111.37,4417.06s493.31-71.59,702.55,0"/><path class="cls-53" d="M2042,4385.24s561.62-85.15,679.66-31.54,194.16,6.91,194.16,6.91"/><path class="cls-53" d="M1777.2,4609.39C1878,4693,1974,4785,2048.75,4893.23"/><path class="cls-53" d="M3247.72,4609.39C3232,4621,3218,4634,3202,4647c-1,1-2,3-3,4-3,2-5,4-8,6-13,13-27,24-41,37-64,62-120,120-171,196a22,22,0,0,0-2.83,3.23"/><path class="cls-53" d="M2524.83,4685.51C2516,4755,2512,4824,2504.45,4893.22"/><text class="cls-54" transform="matrix(0.81, -0.59, 0.59, 0.81, 3535.43, 3849.31)">GRRRRRRR</text></svg>